<!--?xml version="1.0" encoding="utf-8"?-->
<!-- Generator: Adobe Illustrator 21.0.0, SVG Export Plug-In . SVG Version: 6.00 Build 0)  -->
<svg version="1.1" id="Layer_1" xmlns="http://www.w3.org/2000/svg" xmlns:xlink="http://www.w3.org/1999/xlink" x="0px" y="0px" viewBox="0 0 200 200" xml:space="preserve" class="">
<style type="text/css">
	.st0{fill:none;stroke:#0E510E;stroke-width:6;stroke-linejoin:round;stroke-miterlimit:10;}
	.st1{fill:none;stroke:#0E510E;stroke-width:7;stroke-linejoin:round;stroke-miterlimit:10;}
</style>
<path class="st0 KVBrKCQV_0" d="M43.2,72.9H32.2v-4h26.9v4H48v32.4h-4.8V72.9z"></path>
<path class="st0 KVBrKCQV_1" d="M65.8,93.1c0.1,6.4,4.2,9.1,9,9.1c3.4,0,5.5-0.6,7.2-1.3l0.8,3.4c-1.7,0.8-4.5,1.6-8.7,1.6
	c-8,0-12.8-5.3-12.8-13.2s4.6-14.1,12.3-14.1c8.5,0,10.8,7.5,10.8,12.3c0,1-0.1,1.7-0.2,2.2H65.8z M79.7,89.7c0.1-3-1.2-7.7-6.6-7.7
	c-4.8,0-6.9,4.4-7.3,7.7H79.7z"></path>
<path class="st0 KVBrKCQV_2" d="M95.2,86.2c0-2.7-0.1-4.9-0.2-7.1h4.2l0.2,4.2h0.2c1.5-2.5,3.9-4.8,8.2-4.8c3.6,0,6.3,2.2,7.4,5.2h0.1
	c0.8-1.5,1.8-2.6,2.9-3.4c1.6-1.2,3.3-1.8,5.8-1.8c3.5,0,8.6,2.3,8.6,11.3v15.4h-4.6V90.5c0-5-1.8-8-5.7-8c-2.7,0-4.8,2-5.6,4.3
	c-0.2,0.6-0.4,1.5-0.4,2.4v16.1h-4.6V89.6c0-4.2-1.8-7.2-5.5-7.2c-3,0-5.1,2.4-5.9,4.8c-0.3,0.7-0.4,1.5-0.4,2.3v15.8h-4.6V86.2z"></path>
<path class="st0 KVBrKCQV_3" d="M143.2,87.7c0-3.3-0.1-6-0.2-8.5h4.3l0.2,4.5h0.1c1.9-3.2,5-5.1,9.3-5.1c6.3,0,11.1,5.3,11.1,13.3
	c0,9.4-5.7,14-11.9,14c-3.5,0-6.5-1.5-8-4.1h-0.1V116h-4.7V87.7z M147.9,94.7c0,0.7,0.1,1.4,0.2,1.9c0.9,3.3,3.7,5.6,7.1,5.6
	c5,0,7.9-4.1,7.9-10.1c0-5.2-2.8-9.7-7.8-9.7c-3.2,0-6.3,2.3-7.2,5.9c-0.2,0.6-0.3,1.3-0.3,1.9V94.7z"></path>
<path class="st1 KVBrKCQV_4" width="200" height="200" d="M0 0 L200 0 L200 200 L0 200 Z"></path>
<style>.KVBrKCQV_0{stroke-dasharray:127 129;stroke-dashoffset:128;animation:KVBrKCQV_draw_0 6600ms ease-in-out 0ms infinite,KVBrKCQV_fade 6600ms linear 0ms infinite;}.KVBrKCQV_1{stroke-dasharray:153 155;stroke-dashoffset:154;animation:KVBrKCQV_draw_1 6600ms ease-in-out 0ms infinite,KVBrKCQV_fade 6600ms linear 0ms infinite;}.KVBrKCQV_2{stroke-dasharray:215 217;stroke-dashoffset:216;animation:KVBrKCQV_draw_2 6600ms ease-in-out 0ms infinite,KVBrKCQV_fade 6600ms linear 0ms infinite;}.KVBrKCQV_3{stroke-dasharray:182 184;stroke-dashoffset:183;animation:KVBrKCQV_draw_3 6600ms ease-in-out 0ms infinite,KVBrKCQV_fade 6600ms linear 0ms infinite;}.KVBrKCQV_4{stroke-dasharray:800 802;stroke-dashoffset:801;animation:KVBrKCQV_draw_4 6600ms ease-in-out 0ms infinite,KVBrKCQV_fade 6600ms linear 0ms infinite;}@keyframes KVBrKCQV_draw{100%{stroke-dashoffset:0;}}@keyframes KVBrKCQV_fade{0%{stroke-opacity:1;}95.45454545454545%{stroke-opacity:1;}100%{stroke-opacity:0;}}@keyframes KVBrKCQV_draw_0{4.545454545454546%{stroke-dashoffset: 128}34.84848484848485%{ stroke-dashoffset: 0;}100%{ stroke-dashoffset: 0;}}@keyframes KVBrKCQV_draw_1{8.333333333333332%{stroke-dashoffset: 154}38.63636363636363%{ stroke-dashoffset: 0;}100%{ stroke-dashoffset: 0;}}@keyframes KVBrKCQV_draw_2{12.121212121212121%{stroke-dashoffset: 216}42.42424242424242%{ stroke-dashoffset: 0;}100%{ stroke-dashoffset: 0;}}@keyframes KVBrKCQV_draw_3{15.909090909090908%{stroke-dashoffset: 183}46.21212121212121%{ stroke-dashoffset: 0;}100%{ stroke-dashoffset: 0;}}@keyframes KVBrKCQV_draw_4{19.696969696969695%{stroke-dashoffset: 801}50%{ stroke-dashoffset: 0;}100%{ stroke-dashoffset: 0;}}</style></svg>
